<mxfile host="app.diagrams.net" modified="2023-06-04T18:11:01.549Z" agent="Mozilla/5.0 (Windows NT 10.0; Win64; x64) AppleWebKit/537.36 (KHTML, like Gecko) Chrome/110.0.0.0 YaBrowser/23.3.4.603 Yowser/2.5 Safari/537.36" etag="BYShpmv0GV7MK6o-hxmS" version="21.3.4" type="device">
  <diagram name="Страница 1" id="TCrMo9JDw7vAoWIrAI9p">
    <mxGraphModel dx="875" dy="481" grid="1" gridSize="10" guides="1" tooltips="1" connect="1" arrows="1" fold="1" page="1" pageScale="1" pageWidth="827" pageHeight="1169" math="0" shadow="0">
      <root>
        <mxCell id="0" />
        <mxCell id="1" parent="0" />
        <mxCell id="w4OHOZL_qTUTmiTbEvOy-3" value="" style="ellipse;html=1;shape=startState;fillColor=#000000;strokeColor=#ff0000;" parent="1" vertex="1">
          <mxGeometry x="80" y="110" width="30" height="30" as="geometry" />
        </mxCell>
        <mxCell id="pd1X3qTKiEoY6pdAf5Pr-2" value="" style="endArrow=classic;html=1;rounded=0;exitX=1;exitY=0.5;exitDx=0;exitDy=0;fillColor=#e51400;strokeColor=#FF0000;entryX=0;entryY=0.5;entryDx=0;entryDy=0;" edge="1" parent="1" source="w4OHOZL_qTUTmiTbEvOy-3" target="pd1X3qTKiEoY6pdAf5Pr-18">
          <mxGeometry width="50" height="50" relative="1" as="geometry">
            <mxPoint x="190" y="150" as="sourcePoint" />
            <mxPoint x="209" y="140" as="targetPoint" />
          </mxGeometry>
        </mxCell>
        <mxCell id="pd1X3qTKiEoY6pdAf5Pr-18" value="Создана" style="html=1;whiteSpace=wrap;" vertex="1" parent="1">
          <mxGeometry x="140" y="100" width="110" height="50" as="geometry" />
        </mxCell>
        <mxCell id="pd1X3qTKiEoY6pdAf5Pr-19" value="" style="endArrow=classic;html=1;rounded=0;fillColor=#e51400;strokeColor=#FF0000;entryX=0;entryY=0.5;entryDx=0;entryDy=0;exitX=1;exitY=0.5;exitDx=0;exitDy=0;" edge="1" parent="1" source="pd1X3qTKiEoY6pdAf5Pr-18" target="pd1X3qTKiEoY6pdAf5Pr-20">
          <mxGeometry width="50" height="50" relative="1" as="geometry">
            <mxPoint x="430" y="200" as="sourcePoint" />
            <mxPoint x="399" y="250" as="targetPoint" />
          </mxGeometry>
        </mxCell>
        <mxCell id="pd1X3qTKiEoY6pdAf5Pr-20" value="Опубликована" style="html=1;whiteSpace=wrap;" vertex="1" parent="1">
          <mxGeometry x="304" y="100" width="110" height="50" as="geometry" />
        </mxCell>
        <mxCell id="pd1X3qTKiEoY6pdAf5Pr-21" value="Опубликовать тематику" style="text;html=1;strokeColor=none;fillColor=none;align=center;verticalAlign=middle;whiteSpace=wrap;rounded=0;fontSize=10;" vertex="1" parent="1">
          <mxGeometry x="210" y="73.5" width="120" height="21" as="geometry" />
        </mxCell>
        <mxCell id="pd1X3qTKiEoY6pdAf5Pr-22" value="" style="endArrow=classic;html=1;rounded=0;fillColor=#e51400;strokeColor=#FF0000;entryX=0;entryY=0.5;entryDx=0;entryDy=0;exitX=1;exitY=0.5;exitDx=0;exitDy=0;" edge="1" parent="1" source="pd1X3qTKiEoY6pdAf5Pr-20" target="pd1X3qTKiEoY6pdAf5Pr-23">
          <mxGeometry width="50" height="50" relative="1" as="geometry">
            <mxPoint x="410" y="320" as="sourcePoint" />
            <mxPoint x="399" y="360" as="targetPoint" />
          </mxGeometry>
        </mxCell>
        <mxCell id="pd1X3qTKiEoY6pdAf5Pr-23" value="Редактирована" style="html=1;whiteSpace=wrap;" vertex="1" parent="1">
          <mxGeometry x="470" y="100" width="110" height="50" as="geometry" />
        </mxCell>
        <mxCell id="pd1X3qTKiEoY6pdAf5Pr-24" value="Отредактировать тематику" style="text;html=1;strokeColor=none;fillColor=none;align=center;verticalAlign=middle;whiteSpace=wrap;rounded=0;fontSize=10;" vertex="1" parent="1">
          <mxGeometry x="370" y="73" width="136" height="20" as="geometry" />
        </mxCell>
        <mxCell id="pd1X3qTKiEoY6pdAf5Pr-25" value="" style="endArrow=classic;html=1;rounded=0;fillColor=#e51400;strokeColor=#FF0000;entryX=0;entryY=0.5;entryDx=0;entryDy=0;exitX=1;exitY=0.5;exitDx=0;exitDy=0;" edge="1" parent="1" source="pd1X3qTKiEoY6pdAf5Pr-23" target="pd1X3qTKiEoY6pdAf5Pr-26">
          <mxGeometry width="50" height="50" relative="1" as="geometry">
            <mxPoint x="390" y="430" as="sourcePoint" />
            <mxPoint x="399" y="470" as="targetPoint" />
          </mxGeometry>
        </mxCell>
        <mxCell id="pd1X3qTKiEoY6pdAf5Pr-26" value="Удалена" style="html=1;whiteSpace=wrap;" vertex="1" parent="1">
          <mxGeometry x="630" y="100" width="110" height="50" as="geometry" />
        </mxCell>
        <mxCell id="pd1X3qTKiEoY6pdAf5Pr-27" value="Удалить тематику" style="text;html=1;strokeColor=none;fillColor=none;align=center;verticalAlign=middle;whiteSpace=wrap;rounded=0;fontSize=10;" vertex="1" parent="1">
          <mxGeometry x="550" y="73" width="116" height="22" as="geometry" />
        </mxCell>
        <mxCell id="pd1X3qTKiEoY6pdAf5Pr-28" value="" style="endArrow=classic;html=1;rounded=0;fillColor=#e51400;strokeColor=#FF0000;exitX=1;exitY=0.5;exitDx=0;exitDy=0;entryX=0;entryY=0.5;entryDx=0;entryDy=0;" edge="1" parent="1" source="pd1X3qTKiEoY6pdAf5Pr-26" target="pd1X3qTKiEoY6pdAf5Pr-29">
          <mxGeometry width="50" height="50" relative="1" as="geometry">
            <mxPoint x="410" y="530" as="sourcePoint" />
            <mxPoint x="399" y="580" as="targetPoint" />
          </mxGeometry>
        </mxCell>
        <mxCell id="pd1X3qTKiEoY6pdAf5Pr-29" value="" style="ellipse;html=1;shape=endState;fillColor=#000000;strokeColor=#ff0000;" vertex="1" parent="1">
          <mxGeometry x="780" y="110" width="30" height="30" as="geometry" />
        </mxCell>
      </root>
    </mxGraphModel>
  </diagram>
</mxfile>
